{
    "asset" : {
        "generator" : "Khronos glTF Blender I/O v1.7.33",
        "version" : "2.0"
    },
    "scene" : 0,
    "scenes" : [
        {
            "name" : "Scene",
            "nodes" : [
                0,
                1
            ]
        }
    ],
    "nodes" : [
        {
            "mesh" : 0,
            "name" : "diorama",
            "rotation" : [
                0,
                1,
                0,
                -1.6292068494294654e-07
            ]
        },
        {
            "name" : "camera-target",
            "translation" : [
                0,
                2.171908378601074,
                -1.0539594888687134
            ]
        }
    ],
    "materials" : [
        {
            "doubleSided" : true,
            "name" : "Grossing",
            "pbrMetallicRoughness" : {
                "baseColorTexture" : {
                    "index" : 0
                },
                "metallicFactor" : 0
            }
        },
        {
            "alphaMode" : "BLEND",
            "doubleSided" : true,
            "name" : "Flovatar",
            "pbrMetallicRoughness" : {
                "baseColorTexture" : {
                    "index" : 1
                },
                "metallicFactor" : 0
            }
        }
    ],
    "meshes" : [
        {
            "name" : "Cube.082",
            "primitives" : [
                {
                    "attributes" : {
                        "POSITION" : 0,
                        "NORMAL" : 1,
                        "TEXCOORD_0" : 2,
                        "TEXCOORD_1" : 3
                    },
                    "indices" : 4,
                    "material" : 0
                },
                {
                    "attributes" : {
                        "POSITION" : 5,
                        "NORMAL" : 6,
                        "TEXCOORD_0" : 7,
                        "TEXCOORD_1" : 8
                    },
                    "indices" : 9,
                    "material" : 1
                }
            ]
        }
    ],
    "textures" : [
        {
            "sampler" : 0,
            "source" : 0
        },
        {
            "sampler" : 0,
            "source" : 1
        }
    ],
    "images" : [
        {
            "mimeType" : "image/png",
            "name" : "Megatexture.psd",
            "uri" : "textures/Megatexture_psd.png"
        },
        {
            "mimeType" : "image/png",
            "name" : "flovatar",
            "uri" : "textures/flovatar.png"
        }
    ],
    "accessors" : [
        {
            "bufferView" : 0,
            "componentType" : 5126,
            "count" : 12533,
            "max" : [
                7.934913635253906,
                5.348602294921875,
                2.6910104751586914
            ],
            "min" : [
                -8.09058952331543,
                0,
                -3.388608932495117
            ],
            "type" : "VEC3"
        },
        {
            "bufferView" : 1,
            "componentType" : 5126,
            "count" : 12533,
            "type" : "VEC3"
        },
        {
            "bufferView" : 2,
            "componentType" : 5126,
            "count" : 12533,
            "type" : "VEC2"
        },
        {
            "bufferView" : 3,
            "componentType" : 5126,
            "count" : 12533,
            "type" : "VEC2"
        },
        {
            "bufferView" : 4,
            "componentType" : 5123,
            "count" : 26862,
            "type" : "SCALAR"
        },
        {
            "bufferView" : 5,
            "componentType" : 5126,
            "count" : 4,
            "max" : [
                1.2874467372894287,
                3.58894681930542,
                1.0777347087860107
            ],
            "min" : [
                -1.2664873600006104,
                1.0350127220153809,
                1.0777333974838257
            ],
            "type" : "VEC3"
        },
        {
            "bufferView" : 6,
            "componentType" : 5126,
            "count" : 4,
            "type" : "VEC3"
        },
        {
            "bufferView" : 7,
            "componentType" : 5126,
            "count" : 4,
            "type" : "VEC2"
        },
        {
            "bufferView" : 8,
            "componentType" : 5126,
            "count" : 4,
            "type" : "VEC2"
        },
        {
            "bufferView" : 9,
            "componentType" : 5123,
            "count" : 6,
            "type" : "SCALAR"
        }
    ],
    "bufferViews" : [
        {
            "buffer" : 0,
            "byteLength" : 150396,
            "byteOffset" : 0
        },
        {
            "buffer" : 0,
            "byteLength" : 150396,
            "byteOffset" : 150396
        },
        {
            "buffer" : 0,
            "byteLength" : 100264,
            "byteOffset" : 300792
        },
        {
            "buffer" : 0,
            "byteLength" : 100264,
            "byteOffset" : 401056
        },
        {
            "buffer" : 0,
            "byteLength" : 53724,
            "byteOffset" : 501320
        },
        {
            "buffer" : 0,
            "byteLength" : 48,
            "byteOffset" : 555044
        },
        {
            "buffer" : 0,
            "byteLength" : 48,
            "byteOffset" : 555092
        },
        {
            "buffer" : 0,
            "byteLength" : 32,
            "byteOffset" : 555140
        },
        {
            "buffer" : 0,
            "byteLength" : 32,
            "byteOffset" : 555172
        },
        {
            "buffer" : 0,
            "byteLength" : 12,
            "byteOffset" : 555204
        }
    ],
    "samplers" : [
        {
            "magFilter" : 9729,
            "minFilter" : 9987
        }
    ],
    "buffers" : [
        {
            "byteLength" : 555216,
            "uri" : "diorama.bin"
        }
    ]
}
